<svg xmlns="http://www.w3.org/2000/svg" viewBox="0 0 24 24" fill="#5a2fdd">
  <path d="M19.73,14.87,18,13.77,16.31,14.87a1,1,0,0,1-1.5-.87V12H13a1,1,0,0,1-.87-1.5L13.27,9l-1.14-1.7a1,1,0,0,1,.87-1.5H15V3.5a1,1,0,0,1,1.5-.87L18,3.73l1.69-1.1A1,1,0,0,1,21,3.5V5.81h1.8a1,1,0,0,1,.87,1.5L22.53,9l1.14,1.71a1,1,0,0,1-.87,1.5H21V14A1,1,0,0,1,19.73,14.87ZM12,13a3,3,0,0,0-3,3v5a1,1,0,0,0,1,1h4a1,1,0,0,0,1-1V16A3,3,0,0,0,12,13Z"/>
  <path d="M12.73,9.13l-1.6-.89-1.6.89a1,1,0,0,1-1.5-.87V6.5H6.5a1,1,0,0,1-.87-1.5l.89-1.6-.89-1.6A1,1,0,0,1,6.5,1H8.26V-.87a1,1,0,0,1,1.5-.87l1.6.89,1.6-.89a1,1,0,0,1,1.5.87V1h1.77a1,1,0,0,1,.87,1.5l-.89,1.6.89,1.6a1,1,0,0,1-.87,1.5H14.26V8.26A1,1,0,0,1,12.73,9.13Z" opacity="0.75"/>
  <path d="M8,13a3,3,0,0,0-3,3v5a1,1,0,0,0,1,1h4a1,1,0,0,0,1-1V16A3,3,0,0,0,8,13Z" opacity="0.5"/>
</svg>